<svg width="652" height="109" viewBox="0 0 652 109" fill="none" xmlns="http://www.w3.org/2000/svg">
<path d="M41.0714 39.8286L53.8997 6.81968L70.1817 36.9094H110.887L79.0628 64.08L90.6576 107.194L55.6266 78.9003L15.6616 107.194L28.9832 64.08L2.58658 39.8286H41.0714Z" fill="#FFE711"/>
<path d="M56.2826 81.0876C43.9744 89.2762 31.9383 97.2721 19.9253 105.296C19.0433 105.886 18.3705 106.729 17.5201 107.366C15.5527 108.838 13.6956 108.247 13.2489 105.952C13.0771 105.038 13.1251 104.1 13.3896 103.205C14.6426 99.0992 15.8388 94.9692 17.3627 90.9451C20.2494 83.3246 23.3447 75.7704 26.3566 68.19C26.6704 67.4002 27.0133 66.6206 27.2826 65.9782C18.8375 58.9389 10.8426 51.754 3.03985 44.3913C1.99044 43.3829 1.10229 42.244 0.401554 41.0086C-0.490681 39.4569 0.129614 38.4158 2.00709 38.1889C3.86142 37.9565 5.73097 37.8405 7.60267 37.8417C14.7492 37.88 21.8949 38.0247 29.0414 38.0611C31.8418 38.0756 34.6432 37.9094 37.5927 37.8212C38.9536 34.7196 40.2879 31.7137 41.5935 28.6975C45.0289 20.7614 48.4582 12.8227 51.8812 4.88128C51.9998 4.5903 52.1383 4.30636 52.2957 4.03116C53.2865 2.37906 55.1441 2.22406 56.3838 3.759C56.9045 4.46734 57.3281 5.23135 57.645 6.03387C60.337 12.0719 62.9008 18.1593 65.719 24.1468C67.3594 27.6308 69.3983 30.9592 71.3029 34.4432C72.1175 34.4432 72.7849 34.4553 73.4548 34.4432C81.7885 34.269 90.1216 34.0496 98.4563 33.9324C102.446 33.8764 106.439 34.0371 110.43 34.0478C111.734 34.0515 112.817 34.3493 113.394 35.4702C113.676 36.0043 113.755 36.6092 113.618 37.1889C113.48 37.7685 113.135 38.2895 112.636 38.6694C110.012 40.9946 107.393 43.3297 104.656 45.5411C97.3918 51.4108 90.0644 57.2154 82.7676 63.0526C82.0767 63.6053 81.4302 64.2043 80.7863 64.7617C80.8584 65.1216 80.9611 65.4759 81.093 65.8214C86.6472 76.7209 90.0909 88.2193 92.7165 99.9502C93.1657 101.605 93.5142 103.282 93.7606 104.971C94.0288 107.673 93.0329 108.052 90.189 108.469C86.2087 109.057 83.7891 107.142 81.2601 105.028C74.668 99.5198 68.0723 94.0113 62.3121 87.739C60.3477 85.6004 58.4146 83.4409 56.2826 81.0876ZM22.1468 97.5928L22.5106 97.8995C22.9894 97.5909 23.4816 97.2991 23.9451 96.9714C33.7566 90.0199 43.5694 83.0683 53.3836 76.1168C55.8212 74.3951 57.1764 74.4147 59.4867 76.2503C61.0356 77.4669 62.4961 78.774 63.8579 80.1642C70.1879 86.7031 77.3176 92.4857 84.3394 98.3705C84.6241 98.6095 84.9573 98.7995 85.5179 99.1833C85.433 98.6039 85.4233 98.3056 85.3431 98.0241C82.4645 87.8907 79.5456 77.7666 75.4059 67.9837C74.3051 65.3821 74.5974 63.3542 77.0559 61.3547C85.1888 54.7407 93.1529 47.9518 101.176 41.229C101.836 40.6768 102.49 40.1203 103.53 39.2431C102.087 39.2431 101.242 39.2342 100.397 39.2431C91.2075 39.3575 82.0133 39.3551 72.8303 39.6464C68.8746 39.772 66.3915 38.2459 64.6812 35.2274C64.6418 35.1583 64.606 35.0874 64.5728 35.0164C62.9376 31.5227 61.2001 28.0658 59.7008 24.5244C58.1386 20.8365 56.8151 17.0614 55.3658 13.3309C55.0904 12.6218 54.7163 11.9448 54.2012 10.8595C53.123 13.308 52.1188 15.3308 51.3319 17.4222C48.8468 24.0287 46.3833 30.6431 44.0291 37.2894C42.5109 41.5753 39.0686 43.3932 34.5655 43.1098C27.863 42.6897 21.1462 42.4455 14.434 42.1664C12.5944 42.0898 10.7506 42.1547 8.58495 42.1547C10.8845 44.051 13.0307 45.789 15.1345 47.5658C20.7557 52.3076 26.3862 57.0422 31.9471 61.8421C32.8388 62.6721 33.5702 63.6338 34.1107 64.6865C34.8685 66.0548 34.613 67.156 33.1908 67.8983C32.1504 68.4417 31.8367 69.2054 31.5188 70.0816C29.8089 74.7966 28.0328 79.4892 26.4149 84.2265C24.9053 88.6595 23.5628 93.1369 22.1463 97.5928H22.1468Z" fill="#B3916A"/>
<path d="M594.599 78.393C582.291 86.5816 570.255 94.5775 558.242 102.601C557.36 103.191 556.687 104.034 555.837 104.671C553.869 106.143 552.012 105.553 551.565 103.258C551.393 102.344 551.441 101.406 551.706 100.51C552.959 96.4046 554.155 92.2746 555.679 88.2506C558.566 80.6301 561.661 73.0758 564.673 65.4955C564.987 64.7056 565.33 63.926 565.599 63.2836C557.154 56.2443 549.159 49.0594 541.356 41.6967C540.307 40.6883 539.419 39.5494 538.718 38.3141C537.826 36.7623 538.446 35.7212 540.323 35.4944C542.178 35.2619 544.047 35.1459 545.919 35.1471C553.066 35.1854 560.211 35.3301 567.358 35.3665C570.158 35.381 572.96 35.2148 575.909 35.1266C577.27 32.025 578.604 29.0191 579.91 26.0029C583.345 18.0668 586.775 10.1281 590.198 2.1867C590.316 1.89572 590.455 1.61178 590.612 1.33658C591.603 -0.315524 593.46 -0.470515 594.7 1.06442C595.221 1.77276 595.645 2.53677 595.961 3.33929C598.653 9.37727 601.217 15.4647 604.035 21.4523C605.676 24.9362 607.715 28.2646 609.619 31.7486C610.434 31.7486 611.101 31.7607 611.771 31.7486C620.105 31.5745 628.438 31.355 636.773 31.2379C640.762 31.1819 644.755 31.3425 648.747 31.3532C650.05 31.357 651.134 31.6547 651.711 32.7756C651.993 33.3097 652.071 33.9147 651.934 34.4943C651.797 35.0739 651.452 35.5949 650.953 35.9748C648.329 38.3 645.71 40.6351 642.973 42.8465C635.708 48.7163 628.381 54.5208 621.084 60.358C620.393 60.9107 619.747 61.5097 619.103 62.0671C619.175 62.427 619.278 62.7813 619.409 63.1268C624.964 74.0263 628.407 85.5247 631.033 97.2557C631.482 98.9106 631.831 100.587 632.077 102.276C632.345 104.978 631.349 105.357 628.505 105.775C624.525 106.363 622.105 104.447 619.576 102.334C612.984 96.8253 606.389 91.3167 600.628 85.0444C598.664 82.9058 596.731 80.7463 594.599 78.393ZM560.463 94.8982L560.827 95.2049C561.306 94.8963 561.798 94.6046 562.262 94.2768C572.073 87.3253 581.886 80.3738 591.7 73.4222C594.138 71.7006 595.493 71.7202 597.803 73.5557C599.352 74.7723 600.812 76.0794 602.174 77.4696C608.504 84.0085 615.634 89.7911 622.656 95.6759C622.94 95.9149 623.274 96.1049 623.834 96.4887C623.749 95.9093 623.74 95.611 623.659 95.3295C620.781 85.1961 617.862 75.072 613.722 65.2891C612.622 62.6875 612.914 60.6596 615.372 58.6602C623.505 52.0461 631.469 45.2572 639.492 38.5344C640.152 37.9822 640.807 37.4257 641.846 36.5485C640.403 36.5485 639.558 36.5396 638.714 36.5485C629.524 36.6629 620.33 36.6605 611.147 36.9519C607.191 37.0774 604.708 35.5513 602.998 32.5328C602.958 32.4637 602.922 32.3928 602.889 32.3218C601.254 28.8281 599.517 25.3712 598.017 21.8298C596.455 18.1419 595.131 14.3668 593.682 10.6364C593.407 9.92724 593.033 9.25025 592.518 8.16488C591.439 10.6134 590.435 12.6362 589.648 14.7276C587.163 21.3342 584.7 27.9485 582.346 34.5948C580.827 38.8807 577.385 40.6986 572.882 40.4152C566.179 39.9951 559.463 39.751 552.75 39.4718C550.911 39.3952 549.067 39.4602 546.901 39.4602C549.201 41.3564 551.347 43.0944 553.451 44.8712C559.072 49.613 564.703 54.3476 570.263 59.1475C571.155 59.9776 571.887 60.9392 572.427 61.9919C573.185 63.3602 572.929 64.4614 571.507 65.2037C570.467 65.7471 570.153 66.5108 569.835 67.3871C568.125 72.102 566.349 76.7946 564.731 81.532C563.222 85.965 561.879 90.4423 560.463 94.8982H560.463Z" fill="#B3916A"/>
<path d="M175.651 39.9182L188.479 6.90928L204.761 36.999H245.466L213.642 64.1696L225.237 107.283L190.206 78.9899L150.241 107.283L163.563 64.1696L137.166 39.9182H175.651Z" fill="#FFE711"/>
<path d="M190.862 81.1772C178.554 89.3658 166.518 97.3617 154.505 105.386C153.623 105.975 152.95 106.819 152.099 107.455C150.132 108.927 148.275 108.337 147.828 106.042C147.656 105.128 147.704 104.19 147.969 103.294C149.222 99.1888 150.418 95.0588 151.942 91.0347C154.829 83.4142 157.924 75.86 160.936 68.2796C161.25 67.4898 161.593 66.7102 161.862 66.0678C153.417 59.0285 145.422 51.8436 137.619 44.4809C136.57 43.4725 135.682 42.3336 134.981 41.0982C134.089 39.5465 134.709 38.5054 136.586 38.2785C138.441 38.0461 140.31 37.9301 142.182 37.9313C149.329 37.9696 156.474 38.1143 163.621 38.1507C166.421 38.1651 169.222 37.999 172.172 37.9108C173.533 34.8092 174.867 31.8033 176.173 28.7871C179.608 20.851 183.038 12.9123 186.461 4.97088C186.579 4.6799 186.718 4.39596 186.875 4.12076C187.866 2.46866 189.723 2.31366 190.963 3.8486C191.484 4.55694 191.907 5.32095 192.224 6.12347C194.916 12.1615 197.48 18.2489 200.298 24.2364C201.939 27.7204 203.978 31.0488 205.882 34.5328C206.697 34.5328 207.364 34.5449 208.034 34.5328C216.368 34.3586 224.701 34.1392 233.036 34.022C237.025 33.966 241.018 34.1267 245.01 34.1374C246.313 34.1411 247.397 34.4389 247.974 35.5598C248.256 36.0939 248.334 36.6988 248.197 37.2785C248.06 37.8581 247.715 38.3791 247.216 38.759C244.592 41.0842 241.973 43.4193 239.236 45.6307C231.971 51.5004 224.644 57.305 217.347 63.1422C216.656 63.6949 216.01 64.2939 215.366 64.8513C215.438 65.2112 215.54 65.5655 215.672 65.911C221.227 76.8105 224.67 88.3089 227.296 100.04C227.745 101.695 228.094 103.371 228.34 105.061C228.608 107.763 227.612 108.142 224.768 108.559C220.788 109.147 218.368 107.231 215.839 105.118C209.247 99.6094 202.652 94.1009 196.891 87.8286C194.927 85.69 192.994 83.5305 190.862 81.1772ZM156.726 97.6824L157.09 97.9891C157.569 97.6805 158.061 97.3887 158.524 97.061C168.336 90.1095 178.149 83.1579 187.963 76.2064C190.401 74.4847 191.756 74.5043 194.066 76.3399C195.615 77.5565 197.075 78.8636 198.437 80.2538C204.767 86.7927 211.897 92.5753 218.919 98.4601C219.203 98.6991 219.537 98.8891 220.097 99.2729C220.012 98.6935 220.003 98.3952 219.922 98.1137C217.044 87.9803 214.125 77.8562 209.985 68.0733C208.884 65.4717 209.177 63.4438 211.635 61.4443C219.768 54.8303 227.732 48.0414 235.755 41.3186C236.415 40.7664 237.07 40.2099 238.109 39.3327C236.666 39.3327 235.821 39.3238 234.976 39.3327C225.787 39.4471 216.593 39.4447 207.41 39.736C203.454 39.8616 200.971 38.3355 199.261 35.317C199.221 35.2479 199.185 35.177 199.152 35.106C197.517 31.6123 195.779 28.1554 194.28 24.614C192.718 20.9261 191.394 17.151 189.945 13.4205C189.67 12.7114 189.296 12.0344 188.781 10.9491C187.702 13.3976 186.698 15.4204 185.911 17.5118C183.426 24.1183 180.963 30.7327 178.608 37.379C177.09 41.6649 173.648 43.4828 169.145 43.1994C162.442 42.7793 155.726 42.5351 149.013 42.256C147.174 42.1794 145.33 42.2443 143.164 42.2443C145.464 44.1406 147.61 45.8786 149.714 47.6554C155.335 52.3972 160.966 57.1318 166.526 61.9317C167.418 62.7617 168.15 63.7234 168.69 64.7761C169.448 66.1444 169.192 67.2456 167.77 67.9879C166.73 68.5313 166.416 69.295 166.098 70.1712C164.388 74.8862 162.612 79.5788 160.994 84.3161C159.485 88.7491 158.142 93.2265 156.726 97.6824H156.726Z" fill="#B3916A"/>
<path d="M310.229 39.9182L323.057 6.90928L339.339 36.999H380.045L348.221 64.1696L359.815 107.283L324.784 78.9899L284.819 107.283L298.141 64.1696L271.744 39.9182H310.229Z" fill="#FFE711"/>
<path d="M325.44 81.1772C313.132 89.3658 301.096 97.3617 289.083 105.386C288.201 105.975 287.528 106.819 286.678 107.455C284.71 108.927 282.853 108.337 282.407 106.042C282.235 105.128 282.283 104.19 282.547 103.294C283.8 99.1888 284.997 95.0588 286.52 91.0347C289.407 83.4142 292.502 75.86 295.514 68.2796C295.828 67.4898 296.171 66.7102 296.44 66.0678C287.995 59.0285 280 51.8436 272.198 44.4809C271.148 43.4725 270.26 42.3336 269.559 41.0982C268.667 39.5465 269.287 38.5054 271.165 38.2785C273.019 38.0461 274.889 37.9301 276.76 37.9313C283.907 37.9696 291.053 38.1143 298.199 38.1507C301 38.1651 303.801 37.999 306.75 37.9108C308.111 34.8092 309.446 31.8033 310.751 28.7871C314.187 20.851 317.616 12.9123 321.039 4.97088C321.157 4.6799 321.296 4.39596 321.453 4.12076C322.444 2.46866 324.302 2.31366 325.542 3.8486C326.062 4.55694 326.486 5.32095 326.803 6.12347C329.495 12.1615 332.058 18.2489 334.877 24.2364C336.517 27.7204 338.556 31.0488 340.461 34.5328C341.275 34.5328 341.943 34.5449 342.613 34.5328C350.946 34.3586 359.279 34.1392 367.614 34.022C371.603 33.966 375.597 34.1267 379.588 34.1374C380.892 34.1411 381.975 34.4389 382.552 35.5598C382.834 36.0939 382.913 36.6988 382.775 37.2785C382.638 37.8581 382.293 38.3791 381.794 38.759C379.17 41.0842 376.551 43.4193 373.814 45.6307C366.55 51.5004 359.222 57.305 351.925 63.1422C351.234 63.6949 350.588 64.2939 349.944 64.8513C350.016 65.2112 350.119 65.5655 350.251 65.911C355.805 76.8105 359.249 88.3089 361.874 100.04C362.323 101.695 362.672 103.371 362.918 105.061C363.187 107.763 362.191 108.142 359.347 108.559C355.366 109.147 352.947 107.231 350.418 105.118C343.826 99.6094 337.23 94.1009 331.47 87.8286C329.505 85.69 327.572 83.5305 325.44 81.1772ZM291.305 97.6824L291.668 97.9891C292.147 97.6805 292.639 97.3887 293.103 97.061C302.914 90.1095 312.727 83.1579 322.541 76.2064C324.979 74.4847 326.334 74.5043 328.644 76.3399C330.193 77.5565 331.654 78.8636 333.016 80.2538C339.346 86.7927 346.475 92.5753 353.497 98.4601C353.782 98.6991 354.115 98.8891 354.676 99.2729C354.591 98.6935 354.581 98.3952 354.501 98.1137C351.622 87.9803 348.703 77.8562 344.564 68.0733C343.463 65.4717 343.755 63.4438 346.214 61.4443C354.346 54.8303 362.311 48.0414 370.334 41.3186C370.993 40.7664 371.648 40.2099 372.687 39.3327C371.245 39.3327 370.4 39.3238 369.555 39.3327C360.365 39.4471 351.171 39.4447 341.988 39.736C338.032 39.8616 335.549 38.3355 333.839 35.317C333.8 35.2479 333.764 35.177 333.731 35.106C332.095 31.6123 330.358 28.1554 328.859 24.614C327.296 20.9261 325.973 17.151 324.524 13.4205C324.248 12.7114 323.874 12.0344 323.359 10.9491C322.281 13.3976 321.277 15.4204 320.49 17.5118C318.005 24.1183 315.541 30.7327 313.187 37.379C311.669 41.6649 308.226 43.4828 303.723 43.1994C297.021 42.7793 290.304 42.5351 283.592 42.256C281.752 42.1794 279.908 42.2443 277.743 42.2443C280.042 44.1406 282.188 45.8786 284.292 47.6554C289.913 52.3972 295.544 57.1318 301.105 61.9317C301.996 62.7617 302.728 63.7234 303.268 64.7761C304.026 66.1444 303.771 67.2456 302.349 67.9879C301.308 68.5313 300.994 69.295 300.677 70.1712C298.967 74.8862 297.19 79.5788 295.573 84.3161C294.063 88.7491 292.721 93.2265 291.304 97.6824H291.305Z" fill="#B3916A"/>
<path d="M444.808 37.134L457.636 4.1251L473.918 34.2148H514.623L482.799 61.3854L494.394 104.499L459.363 76.2058L419.398 104.499L432.72 61.3854L406.323 37.134H444.808Z" fill="#FFE711"/>
<path d="M460.019 78.393C447.711 86.5816 435.675 94.5775 423.662 102.601C422.78 103.191 422.107 104.034 421.257 104.671C419.289 106.143 417.432 105.553 416.986 103.258C416.814 102.344 416.862 101.406 417.126 100.51C418.379 96.4046 419.575 92.2746 421.099 88.2506C423.986 80.6301 427.081 73.0758 430.093 65.4955C430.407 64.7056 430.75 63.926 431.019 63.2836C422.574 56.2443 414.579 49.0594 406.776 41.6967C405.727 40.6883 404.839 39.5494 404.138 38.3141C403.246 36.7623 403.866 35.7212 405.744 35.4944C407.598 35.2619 409.468 35.1459 411.339 35.1471C418.486 35.1854 425.631 35.3301 432.778 35.3665C435.578 35.381 438.38 35.2148 441.329 35.1266C442.69 32.025 444.024 29.0191 445.33 26.0029C448.765 18.0668 452.195 10.1281 455.618 2.1867C455.736 1.89572 455.875 1.61178 456.032 1.33658C457.023 -0.315524 458.881 -0.470515 460.12 1.06442C460.641 1.77276 461.065 2.53677 461.382 3.33929C464.074 9.37727 466.637 15.4647 469.456 21.4523C471.096 24.9362 473.135 28.2646 475.039 31.7486C475.854 31.7486 476.521 31.7607 477.191 31.7486C485.525 31.5745 493.858 31.355 502.193 31.2379C506.182 31.1819 510.175 31.3425 514.167 31.3532C515.471 31.357 516.554 31.6547 517.131 32.7756C517.413 33.3097 517.492 33.9147 517.354 34.4943C517.217 35.0739 516.872 35.5949 516.373 35.9748C513.749 38.3 511.13 40.6351 508.393 42.8465C501.128 48.7163 493.801 54.5208 486.504 60.358C485.813 60.9107 485.167 61.5097 484.523 62.0671C484.595 62.427 484.698 62.7813 484.83 63.1268C490.384 74.0263 493.828 85.5247 496.453 97.2557C496.902 98.9106 497.251 100.587 497.497 102.276C497.765 104.978 496.769 105.357 493.926 105.775C489.945 106.363 487.526 104.447 484.997 102.334C478.405 96.8253 471.809 91.3167 466.049 85.0444C464.084 82.9058 462.151 80.7463 460.019 78.393ZM425.883 94.8982L426.247 95.2049C426.726 94.8963 427.218 94.6046 427.682 94.2768C437.493 87.3253 447.306 80.3738 457.12 73.4222C459.558 71.7006 460.913 71.7202 463.223 73.5557C464.772 74.7723 466.233 76.0794 467.594 77.4696C473.924 84.0085 481.054 89.7911 488.076 95.6759C488.361 95.9149 488.694 96.1049 489.254 96.4887C489.17 95.9093 489.16 95.611 489.08 95.3295C486.201 85.1961 483.282 75.072 479.142 65.2891C478.042 62.6875 478.334 60.6596 480.792 58.6602C488.925 52.0461 496.89 45.2572 504.912 38.5344C505.572 37.9822 506.227 37.4257 507.266 36.5485C505.824 36.5485 504.978 36.5396 504.134 36.5485C494.944 36.6629 485.75 36.6605 476.567 36.9519C472.611 37.0774 470.128 35.5513 468.418 32.5328C468.378 32.4637 468.343 32.3928 468.309 32.3218C466.674 28.8281 464.937 25.3712 463.437 21.8298C461.875 18.1419 460.552 14.3668 459.102 10.6364C458.827 9.92724 458.453 9.25025 457.938 8.16488C456.86 10.6134 455.855 12.6362 455.068 14.7276C452.583 21.3342 450.12 27.9485 447.766 34.5948C446.247 38.8807 442.805 40.6986 438.302 40.4152C431.6 39.9951 424.883 39.751 418.171 39.4718C416.331 39.3952 414.487 39.4602 412.322 39.4602C414.621 41.3564 416.767 43.0944 418.871 44.8712C424.492 49.613 430.123 54.3476 435.684 59.1475C436.575 59.9776 437.307 60.9392 437.847 61.9919C438.605 63.3602 438.35 64.4614 436.927 65.2037C435.887 65.7471 435.573 66.5108 435.255 67.3871C433.546 72.102 431.769 76.7946 430.151 81.532C428.642 85.965 427.299 90.4423 425.883 94.8982H425.883Z" fill="#B3916A"/>
</svg>
